HIERARCHY
ROOT Joint0
{
  OFFSET 0.0000 0.0000 1.0000
  CHANNELS 6 Xposition Yposition Zposition Zrotation Xrotation Yrotation
  JOINT Joint1
  {
    OFFSET 0.0811 -0.0899 -0.0114
    CHANNELS 3 Zrotation Xrotation Yrotation
    JOINT Joint4
    {
      OFFSET 0.0297 -0.3677 -0.0039
      CHANNELS 3 Zrotation Xrotation Yrotation
      JOINT Joint7
      {
        OFFSET -0.0120 -0.3841 -0.0490
        CHANNELS 3 Zrotation Xrotation Yrotation
        JOINT Joint10
        {
          OFFSET 0.0247 -0.0555 0.1226
          CHANNELS 3 Zrotation Xrotation Yrotation
          End Site
          {
            OFFSET 0.0247 -0.0555 0.1226
          }
        }
      }
    }
  }
  JOINT Joint2
  {
    OFFSET -0.0773 -0.0878 -0.0084
    CHANNELS 3 Zrotation Xrotation Yrotation
    JOINT Joint5
    {
      OFFSET -0.0344 -0.3716 -0.0062
      CHANNELS 3 Zrotation Xrotation Yrotation
      JOINT Joint8
      {
        OFFSET 0.0139 -0.3835 -0.0484
        CHANNELS 3 Zrotation Xrotation Yrotation
        JOINT Joint11
        {
          OFFSET -0.0293 -0.0469 0.1263
          CHANNELS 3 Zrotation Xrotation Yrotation
          End Site
          {
            OFFSET -0.0293 -0.0469 0.1263
          }
        }
      }
    }
  }
  JOINT Joint3
  {
    OFFSET -0.0027 0.1037 -0.0232
    CHANNELS 3 Zrotation Xrotation Yrotation
    JOINT Joint6
    {
      OFFSET 0.0030 0.1296 -0.0027
      CHANNELS 3 Zrotation Xrotation Yrotation
      JOINT Joint9
      {
        OFFSET 0.0015 0.0533 0.0332
        CHANNELS 3 Zrotation Xrotation Yrotation
        JOINT Joint12
        {
          OFFSET -0.0004 0.2283 -0.0600
          CHANNELS 3 Zrotation Xrotation Yrotation
          JOINT Joint15
          {
            OFFSET 0.0048 0.0641 0.0558
            CHANNELS 3 Zrotation Xrotation Yrotation
            End Site
            {
              OFFSET 0.0048 0.0641 0.0558
            }
          }
        }
        JOINT Joint13
        {
          OFFSET 0.0787 0.1275 -0.0430
          CHANNELS 3 Zrotation Xrotation Yrotation
          JOINT Joint16
          {
            OFFSET 0.0914 0.0355 -0.0086
            CHANNELS 3 Zrotation Xrotation Yrotation
            JOINT Joint18
            {
              OFFSET 0.2512 -0.0141 -0.0294
              CHANNELS 3 Zrotation Xrotation Yrotation
              JOINT Joint20
              {
                OFFSET 0.2431 0.0092 0.0027
                CHANNELS 3 Zrotation Xrotation Yrotation
                JOINT Joint22
                {
                  OFFSET 0.1053 -0.0108 0.0234
                  CHANNELS 3 Zrotation Xrotation Yrotation
                  JOINT Joint23
                  {
                    OFFSET 0.0332 0.0042 0.0030
                    CHANNELS 3 Zrotation Xrotation Yrotation
                    JOINT Joint24
                    {
                      OFFSET 0.0234 -0.0009 0.0005
                      CHANNELS 3 Zrotation Xrotation Yrotation
                      End Site
                      {
                        OFFSET 0.0234 -0.0009 0.0005
                      }
                    }
                  }
                }
                JOINT Joint25
                {
                  OFFSET 0.1126 -0.0078 -0.0002
                  CHANNELS 3 Zrotation Xrotation Yrotation
                  JOINT Joint26
                  {
                    OFFSET 0.0317 0.0021 -0.0047
                    CHANNELS 3 Zrotation Xrotation Yrotation
                    JOINT Joint27
                    {
                      OFFSET 0.0246 -0.0008 -0.0039
                      CHANNELS 3 Zrotation Xrotation Yrotation
                      End Site
                      {
                        OFFSET 0.0246 -0.0008 -0.0039
                      }
                    }
                  }
                }
                JOINT Joint28
                {
                  OFFSET 0.0860 -0.0168 -0.0403
                  CHANNELS 3 Zrotation Xrotation Yrotation
                  JOINT Joint29
                  {
                    OFFSET 0.0158 -0.0006 -0.0114
                    CHANNELS 3 Zrotation Xrotation Yrotation
                    JOINT Joint30
                    {
                      OFFSET 0.0161 -0.0011 -0.0109
                      CHANNELS 3 Zrotation Xrotation Yrotation
                      End Site
                      {
                        OFFSET 0.0161 -0.0011 -0.0109
                      }
                    }
                  }
                }
                JOINT Joint31
                {
                  OFFSET 0.0999 -0.0111 -0.0238
                  CHANNELS 3 Zrotation Xrotation Yrotation
                  JOINT Joint32
                  {
                    OFFSET 0.0286 0.0023 -0.0053
                    CHANNELS 3 Zrotation Xrotation Yrotation
                    JOINT Joint33
                    {
                      OFFSET 0.0234 -0.0009 -0.0074
                      CHANNELS 3 Zrotation Xrotation Yrotation
                      End Site
                      {
                        OFFSET 0.0234 -0.0009 -0.0074
                      }
                    }
                  }
                }
                JOINT Joint34
                {
                  OFFSET 0.0426 -0.0219 0.0277
                  CHANNELS 3 Zrotation Xrotation Yrotation
                  JOINT Joint35
                  {
                    OFFSET 0.0185 0.0008 0.0246
                    CHANNELS 3 Zrotation Xrotation Yrotation
                    JOINT Joint36
                    {
                      OFFSET 0.0221 -0.0048 0.0152
                      CHANNELS 3 Zrotation Xrotation Yrotation
                      End Site
                      {
                        OFFSET 0.0221 -0.0048 0.0152
                      }
                    }
                  }
                }
              }
            }
          }
        }
        JOINT Joint14
        {
          OFFSET -0.0815 0.1251 -0.0492
          CHANNELS 3 Zrotation Xrotation Yrotation
          JOINT Joint17
          {
            OFFSET -0.0975 0.0385 -0.0099
            CHANNELS 3 Zrotation Xrotation Yrotation
            JOINT Joint19
            {
              OFFSET -0.2546 -0.0159 -0.0229
              CHANNELS 3 Zrotation Xrotation Yrotation
              JOINT Joint21
              {
                OFFSET -0.2519 0.0079 0.0007
                CHANNELS 3 Zrotation Xrotation Yrotation
                JOINT Joint37
                {
                  OFFSET -0.1043 -0.0103 0.0246
                  CHANNELS 3 Zrotation Xrotation Yrotation
                  JOINT Joint38
                  {
                    OFFSET -0.0341 0.0034 0.0025
                    CHANNELS 3 Zrotation Xrotation Yrotation
                    JOINT Joint39
                    {
                      OFFSET -0.0236 -0.0015 -0.0003
                      CHANNELS 3 Zrotation Xrotation Yrotation
                      End Site
                      {
                        OFFSET -0.0236 -0.0015 -0.0003
                      }
                    }
                  }
                }
                JOINT Joint40
                {
                  OFFSET -0.1123 -0.0074 -0.0003
                  CHANNELS 3 Zrotation Xrotation Yrotation
                  JOINT Joint41
                  {
                    OFFSET -0.0322 0.0016 -0.0048
                    CHANNELS 3 Zrotation Xrotation Yrotation
                    JOINT Joint42
                    {
                      OFFSET -0.0245 -0.0012 -0.0045
                      CHANNELS 3 Zrotation Xrotation Yrotation
                      End Site
                      {
                        OFFSET -0.0245 -0.0012 -0.0045
                      }
                    }
                  }
                }
                JOINT Joint43
                {
                  OFFSET -0.0863 -0.0161 -0.0419
                  CHANNELS 3 Zrotation Xrotation Yrotation
                  JOINT Joint44
                  {
                    OFFSET -0.0162 -0.0001 -0.0120
                    CHANNELS 3 Zrotation Xrotation Yrotation
                    JOINT Joint45
                    {
                      OFFSET -0.0165 -0.0007 -0.0110
                      CHANNELS 3 Zrotation Xrotation Yrotation
                      End Site
                      {
                        OFFSET -0.0165 -0.0007 -0.0110
                      }
                    }
                  }
                }
                JOINT Joint46
                {
                  OFFSET -0.0999 -0.0107 -0.0248
                  CHANNELS 3 Zrotation Xrotation Yrotation
                  JOINT Joint47
                  {
                    OFFSET -0.0290 0.0016 -0.0050
                    CHANNELS 3 Zrotation Xrotation Yrotation
                    JOINT Joint48
                    {
                      OFFSET -0.0236 -0.0012 -0.0076
                      CHANNELS 3 Zrotation Xrotation Yrotation
                      End Site
                      {
                        OFFSET -0.0236 -0.0012 -0.0076
                      }
                    }
                  }
                }
                JOINT Joint49
                {
                  OFFSET -0.0397 -0.0214 0.0306
                  CHANNELS 3 Zrotation Xrotation Yrotation
                  JOINT Joint50
                  {
                    OFFSET -0.0191 0.0007 0.0247
                    CHANNELS 3 Zrotation Xrotation Yrotation
                    JOINT Joint51
                    {
                      OFFSET -0.0231 -0.0056 0.0141
                      CHANNELS 3 Zrotation Xrotation Yrotation
                      End Site
                      {
                        OFFSET -0.0231 -0.0056 0.0141
                      }
                    }
                  }
                }
              }
            }
          }
        }
      }
    }
  }
}
MOTION
Frames: 8
Frame Time: 0.0333
0.0000 0.0000 0.0000 168.7505 82.7556 -11.4055 33.9721 9.3514 8.0594 -2.7951 19.7473 -19.6875 10.7002 -11.3602 23.7161 -0.4289 -0.0923 0.4264 -26.6821 -26.0001 -18.4825 18.9266 20.8669 -9.9285 16.4161 -17.3280 23.6332 0.3049 -0.6000 0.0121 -6.1226 20.0272 19.1173 23.8282 1.7974 4.6692 -16.7264 -9.8814 35.5778 -4.8714 3.8878 4.5771 2.6824 -6.3400 -11.6499 -43.4643 -10.7282 10.7574 -54.8422 -39.4121 -38.5683 -13.5066 -23.4658 19.7734 39.5013 39.4292 -9.2812 -23.5408 5.6934 3.4433 -43.0708 7.2712 -1.0219 -11.3623 -4.8162 -5.8014 -30.3006 -7.5606 0.8903 -40.7543 -8.5910 -0.0573 -19.8450 -0.5055 -5.2236 -40.3923 -20.8583 -19.2321 -29.9294 -11.0549 -6.6209 -5.5087 -21.3744 -4.5446 -36.7330 -5.7444 -6.6964 -37.2118 -15.0814 -8.7006 -22.7424 -8.2814 -9.5278 -16.6744 46.6895 24.0748 3.4871 -28.0277 2.1269 -17.8627 30.2471 8.1356 22.9107 -8.1931 34.9237 47.5340 6.7311 -8.2260 -19.5646 7.5916 7.6174 -28.1169 37.9032 10.9780 24.7194 5.2977 -4.0590 42.8176 7.4737 0.6403 10.8774 -5.3427 5.6966 30.0760 -7.0253 -0.6942 40.2555 -8.3527 0.2384 19.7585 -0.0927 5.7125 39.5133 -20.6433 19.2630 29.9399 -10.8280 6.7572 5.3731 -21.1542 4.3425 36.2085 -6.3490 7.3875 38.3911 -15.0174 8.4900 21.9972 -8.4454 8.7974 15.8645 47.0934 -23.6146 -4.2685 -28.8149 -2.2047 18.2257 29.1224 -7.8092
0.0000 0.0000 0.0000 168.0049 82.6971 -10.6716 34.2654 9.1412 8.1443 -2.8768 19.8361 -19.7805 10.7370 -11.3175 23.8815 -0.3762 -0.0965 0.3545 -27.0756 -25.9949 -18.6523 18.8820 20.8785 -9.8880 16.1948 -17.2521 23.1910 0.3149 -0.5872 -0.0296 -5.9904 19.9623 19.2211 23.7169 1.9537 4.8287 -16.9592 -10.0272 35.9337 -4.7969 3.9703 4.5991 2.5182 -6.4377 -11.6503 -43.6147 -10.5862 10.7102 -54.6063 -39.4419 -38.5445 -13.6681 -23.7749 19.6913 39.4440 39.4247 -9.2255 -23.6050 5.5980 3.4749 -42.9751 7.2582 -1.0314 -11.4241 -4.8435 -5.7961 -30.3212 -7.6122 0.9515 -40.7427 -8.6293 0.0057 -19.7770 -0.4838 -5.1624 -40.4528 -20.8225 -19.2759 -29.8879 -11.0195 -6.6916 -5.5077 -21.4097 -4.6844 -36.6828 -5.7463 -6.6318 -37.3088 -15.0772 -8.8773 -22.5832 -8.1886 -9.5615 -16.6302 46.7941 24.0918 3.5380 -27.9089 2.0474 -18.0820 30.2045 8.2672 22.7957 -8.4479 34.9843 47.2263 6.8797 -8.1508 -19.5022 7.4860 7.8640 -27.9148 37.8859 10.9684 24.7204 5.2773 -4.1188 42.8658 7.4205 0.6019 10.7941 -5.3091 5.5777 30.0139 -6.9888 -0.7981 40.2058 -8.4056 0.1906 19.6909 -0.1971 5.7293 39.5373 -20.6608 19.3112 29.9345 -10.8173 6.7186 5.3222 -21.0858 4.2389 36.1524 -6.3246 7.3610 38.2464 -15.0053 8.4002 21.8985 -8.5067 8.8034 15.7364 47.1262 -23.5926 -4.1893 -28.7967 -2.0544 18.2758 29.0505 -7.9114
0.0000 0.0000 0.0000 168.2766 82.7734 -10.7363 34.4011 8.9158 8.0761 -2.8667 20.1467 -20.1815 10.8809 -11.2799 24.0987 -0.3931 -0.1502 0.3357 -27.4288 -25.9797 -18.6563 18.9866 20.8977 -10.0608 16.2391 -17.3512 23.5624 0.3030 -0.5587 -0.0240 -5.8525 20.2175 19.6015 23.7661 2.0815 4.9769 -17.2089 -10.5056 36.5621 -4.9226 4.2437 4.6603 2.4212 -6.6833 -11.8695 -43.7747 -10.6595 10.6741 -54.4921 -39.4997 -38.7697 -13.7504 -23.9800 19.7667 39.5714 39.5305 -9.2594 -23.5939 5.5937 3.5532 -42.9434 7.2510 -1.0486 -11.4464 -4.8479 -5.7581 -30.2791 -7.6281 1.0356 -40.7129 -8.6596 -0.0181 -19.7287 -0.4181 -5.1341 -40.4727 -20.8360 -19.3040 -29.9488 -11.0013 -6.7489 -5.4962 -21.2955 -4.7465 -36.6751 -5.7898 -6.5900 -37.4380 -15.0448 -8.9776 -22.5093 -8.1519 -9.5432 -16.5597 46.7293 24.0926 3.4949 -27.7378 1.9133 -18.1070 30.1751 8.3081 22.6075 -8.7974 35.2524 47.0395 7.1604 -8.0959 -19.6538 7.7623 7.9655 -27.8112 38.1349 10.8920 24.6384 5.2852 -4.1555 42.9623 7.4232 0.6506 10.7606 -5.2676 5.5157 30.1169 -6.9215 -0.8898 40.1766 -8.4208 0.2192 19.7438 -0.2597 5.7548 39.5442 -20.6922 19.3570 29.9316 -10.8533 6.6719 5.3459 -21.0594 4.2846 36.1763 -6.2552 7.3890 38.2045 -14.9936 8.4065 21.8554 -8.5368 8.8556 15.6855 47.0721 -23.5548 -4.0848 -28.7850 -1.9835 18.3457 28.9709 -8.0340
0.0000 0.0000 0.0000 168.9520 82.9017 -11.0500 34.5130 8.7311 7.9804 -2.7951 20.3055 -20.5660 11.0344 -11.2755 24.3688 -0.4667 -0.2116 0.3234 -27.8877 -25.9114 -18.7123 19.1592 20.9279 -10.2271 16.3560 -17.5170 24.1348 0.2630 -0.5389 -0.0053 -5.7385 20.7407 20.2421 23.9517 2.1975 5.1001 -17.3696 -11.0501 37.1805 -5.1579 4.4981 4.7331 2.3469 -7.0969 -12.2101 -43.8888 -10.8660 10.6794 -54.4960 -39.6175 -39.0407 -13.7165 -24.0643 19.8861 39.6785 39.6305 -9.2629 -23.5603 5.6470 3.5791 -42.9453 7.2540 -1.0754 -11.4140 -4.8656 -5.6821 -30.2176 -7.6006 1.0990 -40.6923 -8.7094 -0.0338 -19.7455 -0.3910 -5.1072 -40.4523 -20.8588 -19.2875 -30.0317 -11.0255 -6.7723 -5.4903 -21.1262 -4.7114 -36.6717 -5.8512 -6.5533 -37.5064 -15.0248 -9.0017 -22.5675 -8.1825 -9.5497 -16.5527 46.6026 24.1019 3.4695 -27.6358 1.8708 -17.9795 30.2078 8.2931 22.5774 -9.0720 35.4824 46.8575 7.4899 -8.0544 -19.9458 8.2317 7.8890 -27.8383 38.4258 10.8426 24.5403 5.3121 -4.1670 43.0497 7.4382 0.7443 10.7863 -5.2686 5.5194 30.2725 -6.9048 -0.9134 40.1055 -8.4338 0.2138 19.7931 -0.2281 5.7634 39.5619 -20.6856 19.4023 29.9365 -10.8341 6.6831 5.3685 -21.0677 4.4044 36.2529 -6.2126 7.3983 38.2427 -14.9969 8.5121 21.8777 -8.5281 8.9265 15.7347 46.9980 -23.5907 -4.0048 -28.7713 -1.9722 18.4336 28.9567 -8.0913
0.0000 0.0000 0.0000 169.4032 82.9761 -11.1803 34.6741 8.6044 7.9833 -2.7050 20.3340 -20.7848 11.1301 -11.2703 24.6481 -0.5056 -0.2406 0.3140 -28.5086 -25.7895 -18.8994 19.3133 20.9273 -10.2763 16.3825 -17.6413 24.3387 0.2112 -0.5201 0.0074 -5.6171 21.2837 20.9451 24.1461 2.3141 5.2265 -17.4681 -11.4539 37.6299 -5.3868 4.5835 4.7403 2.2803 -7.5182 -12.4422 -43.9634 -11.0051 10.6369 -54.5969 -39.7283 -39.1570 -13.6689 -24.1720 19.9390 39.6096 39.6663 -9.1903 -23.5636 5.6812 3.5274 -42.9821 7.2615 -1.0921 -11.4218 -4.8916 -5.6560 -30.1890 -7.5539 1.1212 -40.6538 -8.7543 -0.0474 -19.7289 -0.4068 -5.0834 -40.4447 -20.8821 -19.2423 -30.0467 -11.0542 -6.7500 -5.4515 -21.0104 -4.6630 -36.6560 -5.9182 -6.5323 -37.5282 -14.9925 -9.0206 -22.7223 -8.2255 -9.5936 -16.6328 46.5604 24.1695 3.4364 -27.7156 1.9003 -17.8259 30.3151 8.2564 22.6742 -9.2297 35.5437 46.5893 7.7125 -7.9566 -20.1912 8.5826 7.8345 -27.8441 38.4921 10.8060 24.4601 5.2869 -4.1784 43.0880 7.4291 0.8019 10.8073 -5.2822 5.5284 30.3649 -6.9365 -0.8935 40.0536 -8.4863 0.1744 19.8094 -0.1862 5.7494 39.5919 -20.6619 19.4537 29.9214 -10.7794 6.7079 5.3425 -21.0807 4.4616 36.2913 -6.2796 7.3536 38.2677 -15.0153 8.5768 21.9186 -8.5104 8.9400 15.8160 46.9085 -23.7230 -3.9963 -28.7653 -1.9961 18.4344 29.0328 -8.0990
0.0000 0.0000 0.0000 169.4454 82.9715 -11.0604 34.8486 8.5548 8.0461 -2.7050 20.2998 -20.8049 11.1563 -11.2617 24.8757 -0.5129 -0.2432 0.3250 -29.3055 -25.5796 -19.1910 19.4324 20.9558 -10.3066 16.3001 -17.7037 24.0548 0.1857 -0.5283 -0.0081 -5.4410 21.6582 21.4970 24.3259 2.4835 5.3787 -17.5596 -11.7181 37.9389 -5.5448 4.5724 4.6752 2.1764 -7.9117 -12.5272 -43.9651 -10.9828 10.6043 -54.7758 -39.8154 -39.0522 -13.6929 -24.4144 19.8590 39.3318 39.5896 -8.9981 -23.5636 5.7161 3.4717 -42.9868 7.2960 -1.1339 -11.4123 -4.9104 -5.6514 -30.2127 -7.5259 1.1315 -40.6072 -8.7996 -0.0613 -19.6563 -0.4389 -5.1225 -40.4384 -20.8641 -19.2012 -30.0077 -11.0656 -6.7138 -5.4472 -20.9872 -4.6025 -36.6346 -5.9360 -6.5308 -37.5209 -14.9742 -9.0430 -22.7848 -8.2584 -9.5784 -16.7152 46.6293 24.2574 3.4191 -27.7848 1.9816 -17.7603 30.4423 8.2648 22.8056 -9.2872 35.4315 46.2860 7.7861 -7.8124 -20.3335 8.7184 7.8620 -27.7690 38.2717 10.7534 24.4551 5.2389 -4.1924 43.0814 7.3910 0.7846 10.7849 -5.3104 5.5185 30.3491 -6.9908 -0.8780 40.0945 -8.5198 0.1536 19.8206 -0.1674 5.7431 39.6337 -20.6581 19.5346 29.9229 -10.7206 6.7436 5.2913 -21.0457 4.4313 36.2589 -6.4430 7.3028 38.2640 -15.0184 8.5789 21.9670 -8.4821 8.9191 15.8820 46.8888 -23.8338 -4.0431 -28.7334 -2.0445 18.3523 29.1246 -8.0703
0.0000 0.0000 0.0000 169.3035 82.9237 -10.9102 35.0143 8.6095 8.1045 -2.7838 20.2077 -20.7277 11.1341 -11.2483 25.0123 -0.5086 -0.2390 0.3494 -30.1083 -25.3030 -19.4915 19.4960 20.9978 -10.3673 16.1632 -17.7446 23.4862 0.1858 -0.5297 -0.0335 -5.1857 21.8499 21.7559 24.5649 2.7285 5.5320 -17.6913 -11.9525 38.2338 -5.6150 4.5469 4.6473 2.0611 -8.2948 -12.5782 -43.9527 -10.8864 10.5490 -54.9786 -39.9457 -38.8156 -13.8050 -24.7804 19.6686 39.0230 39.4772 -8.8113 -23.5791 5.7039 3.4461 -43.0051 7.3374 -1.1609 -11.3799 -4.9225 -5.6411 -30.2285 -7.5037 1.1437 -40.6083 -8.8226 -0.0616 -19.6034 -0.3772 -5.1683 -40.4568 -20.8615 -19.1642 -29.9583 -11.0641 -6.6959 -5.4458 -20.9930 -4.5722 -36.6214 -5.9670 -6.5501 -37.4763 -14.9972 -9.0531 -22.7701 -8.2576 -9.5841 -16.7825 46.7114 24.3141 3.4554 -27.7893 2.0337 -17.8135 30.5436 8.2960 22.8910 -9.2891 35.2283 46.0638 7.8144 -7.6593 -20.3961 8.6974 7.9736 -27.6888 37.9685 10.7052 24.4990 5.2050 -4.1997 43.0530 7.3599 0.7462 10.7228 -5.3106 5.4972 30.2781 -7.0112 -0.8652 40.1795 -8.5360 0.1367 19.8159 -0.1658 5.7406 39.6608 -20.7002 19.5900 29.9139 -10.7617 6.7340 5.2534 -21.0156 4.3458 36.2324 -6.4986 7.3075 38.1966 -15.0014 8.5213 22.0065 -8.5374 8.8722 15.8973 46.8401 -23.8634 -4.0951 -28.7091 -2.0666 18.2538 29.2103 -8.0264
0.0000 0.0000 0.0000 169.1221 82.9048 -10.7221 35.1671 8.7609 8.1308 -2.8637 20.1485 -20.6750 11.1013 -11.2163 25.0882 -0.4924 -0.2553 0.3453 -30.6973 -24.9566 -19.6663 19.5306 21.0031 -10.4920 15.9972 -17.8171 22.8937 0.2018 -0.5056 -0.0501 -4.8914 21.9565 21.7196 24.8627 2.9866 5.6793 -17.8657 -12.2734 38.5968 -5.6229 4.5605 4.6551 1.9609 -8.7018 -12.6817 -44.0029 -10.7933 10.5000 -55.0991 -40.0720 -38.5976 -13.9502 -25.1843 19.4565 38.8053 39.4582 -8.7363 -23.6303 5.6834 3.4607 -42.9543 7.3506 -1.1688 -11.3561 -4.9292 -5.6172 -30.2295 -7.4885 1.1459 -40.6349 -8.8405 -0.0715 -19.5504 -0.2743 -5.1996 -40.4816 -20.8594 -19.1751 -29.9528 -11.0335 -6.7112 -5.4395 -20.9972 -4.5684 -36.6278 -5.9553 -6.5929 -37.4322 -14.9892 -9.0654 -22.6740 -8.2474 -9.5563 -16.8459 46.7611 24.3492 3.4345 -27.7575 2.0165 -17.9121 30.5801 8.3413 22.8472 -9.3096 34.9906 45.8941 7.8957 -7.5841 -20.3805 8.6799 8.1279 -27.7272 37.8625 10.7049 24.5487 5.2406 -4.1936 43.0497 7.3336 0.7086 10.6906 -5.2489 5.4801 30.2295 -6.9777 -0.8792 40.2566 -8.5417 0.1062 19.8469 -0.1825 5.7385 39.7002 -20.7287 19.6395 29.9313 -10.7944 6.7463 5.2701 -21.0003 4.2693 36.2046 -6.4994 7.3538 38.1085 -14.9806 8.4636 21.9934 -8.5838 8.7943 15.8705 46.8154 -23.8281 -4.1102 -28.6728 -2.0205 18.1882 29.2250 -7.9696
